<svg width="55" height="55" viewBox="0 0 55 55" fill="none" xmlns="http://www.w3.org/2000/svg">
<rect x="1" y="1" width="53" height="53" stroke="#ECBFD3" stroke-width="2"/>
<path d="M23.6406 33H20.3711V22.4883H23.6406V33ZM21.9883 21.082C20.9688 21.082 20.125 20.2031 20.125 19.1484C20.125 18.1289 20.9688 17.2852 21.9883 17.2852C23.043 17.2852 23.8867 18.1289 23.8867 19.1484C23.8867 20.2031 23.043 21.082 21.9883 21.082ZM35.8398 33H32.6055V27.9023C32.6055 26.6719 32.5703 25.125 30.8828 25.125C29.1953 25.125 28.9492 26.4258 28.9492 27.7969V33H25.6797V22.4883H28.8086V23.9297H28.8438C29.3008 23.1211 30.3555 22.2422 31.9375 22.2422C35.2422 22.2422 35.875 24.4219 35.875 27.2344V33H35.8398Z" fill="white"/>
</svg>
