<svg width="65" height="65" viewBox="0 0 65 65" fill="none" xmlns="http://www.w3.org/2000/svg">
<rect x="1.00024" y="1" width="63" height="63" rx="4" stroke="#422A3C" stroke-width="2"/>
<path d="M38.2813 27.2187C37.5373 26.4747 38.113 25.5986 38.8819 26.3168C38.9338 26.3653 38.9848 26.4146 39.0351 26.4649C39.0854 26.5152 39.1348 26.5663 39.1832 26.6181C39.9014 27.3871 39.0253 27.9628 38.2813 27.2187V27.2187ZM40.7813 24.7125C39.1348 23.0681 40.3869 21.0243 42.1134 22.5846C42.2519 22.7098 42.3877 22.8387 42.5203 22.9713C42.653 23.1038 42.7821 23.2393 42.9075 23.3777C44.47 25.1022 42.4278 26.3569 40.7813 24.7125V24.7125ZM44.5 39.65V43.4C44.5015 43.7481 44.4301 44.0927 44.2907 44.4117C44.1512 44.7307 43.9467 45.017 43.6901 45.2523C43.4336 45.4877 43.1308 45.6669 42.801 45.7784C42.4712 45.8899 42.1218 45.9313 41.775 45.9C37.9286 45.4821 34.2338 44.1677 30.9875 42.0625C27.9673 40.1433 25.4067 37.5827 23.4875 34.5625C21.375 31.3015 20.0603 27.5887 19.65 23.725C19.6188 23.3793 19.6599 23.031 19.7707 22.702C19.8814 22.3731 20.0595 22.0709 20.2935 21.8145C20.5275 21.5582 20.8123 21.3534 21.1298 21.2132C21.4473 21.0729 21.7905 21.0003 22.1375 21H25.8875C26.4942 20.994 27.0823 21.2088 27.5422 21.6044C28.0022 22 28.3026 22.5493 28.3875 23.15C28.5458 24.3501 28.8394 25.5284 29.2625 26.6625C29.4307 27.1099 29.4671 27.5961 29.3674 28.0636C29.2677 28.5311 29.0361 28.9601 28.7 29.3V29.3C27.7623 30.2377 27.5489 31.7008 28.3294 32.7729C29.557 34.4591 31.041 35.9431 32.7272 37.1707C33.7993 37.9512 35.2623 37.7377 36.2 36.8V36.8C36.5399 36.4639 36.969 36.2323 37.4364 36.1326C37.9039 36.0329 38.3901 36.0693 38.8375 36.2375C39.9716 36.6607 41.15 36.9542 42.35 37.1125C42.9572 37.1982 43.5118 37.504 43.9082 37.9719C44.3046 38.4397 44.5152 39.037 44.5 39.65Z" stroke="#422A3C" stroke-width="2" stroke-linecap="round" stroke-linejoin="round"/>
</svg>
