<svg width="65" height="65" viewBox="0 0 65 65" fill="none" xmlns="http://www.w3.org/2000/svg">
<rect x="1.00024" y="1" width="63" height="63" rx="4" stroke="#422A3C" stroke-width="2"/>
<path d="M28.1252 45.0837V34.8753C28.1252 32.4591 30.084 30.5003 32.5002 30.5003V30.5003C34.9165 30.5003 36.8752 32.4591 36.8752 34.8753V45.0837M45.6252 42.167V28.5707C45.6252 27.0278 44.9129 25.5713 43.6949 24.624L35.5699 18.3045C33.7644 16.9002 31.2361 16.9002 29.4305 18.3045L21.3055 24.624C20.0876 25.5713 19.3752 27.0278 19.3752 28.5707V42.167C19.3752 42.9405 19.6825 43.6824 20.2295 44.2294C20.7765 44.7764 21.5184 45.0837 22.2919 45.0837H42.7086C43.4821 45.0837 44.224 44.7764 44.771 44.2294C45.318 43.6824 45.6252 42.9405 45.6252 42.167Z" stroke="#422A3C" stroke-width="2" stroke-linecap="round" stroke-linejoin="round"/>
</svg>
