<svg width="20" height="20" viewBox="0 0 20 20" fill="none" xmlns="http://www.w3.org/2000/svg">
<rect width="20" height="20" rx="10" fill="#6B0606"/>
<rect x="3.33334" y="3.33331" width="13.3333" height="13.3333" rx="6.66667" fill="#6B0606"/>
<path d="M10.0006 3.33331C8.19006 3.33331 7.96284 3.34123 7.25172 3.37359C6.54199 3.40609 6.05754 3.51845 5.63365 3.68332C5.19517 3.8536 4.82322 4.08138 4.45266 4.45207C4.08182 4.82263 3.85404 5.19458 3.68321 5.63292C3.51793 6.05695 3.40543 6.54154 3.37348 7.25099C3.34168 7.96211 3.33334 8.18947 3.33334 10C3.33334 11.8106 3.3414 12.0372 3.37362 12.7483C3.40626 13.458 3.51862 13.9424 3.68335 14.3663C3.85377 14.8048 4.08155 15.1768 4.45224 15.5473C4.82266 15.9182 5.19461 16.1465 5.63281 16.3168C6.05698 16.4816 6.54157 16.594 7.25116 16.6265C7.96228 16.6589 8.18937 16.6668 9.9998 16.6668C11.8105 16.6668 12.037 16.6589 12.7482 16.6265C13.4579 16.594 13.9429 16.4816 14.3671 16.3168C14.8054 16.1465 15.1768 15.9182 15.5472 15.5473C15.9181 15.1768 16.1458 14.8048 16.3167 14.3665C16.4806 13.9424 16.5931 13.4579 16.6264 12.7484C16.6583 12.0373 16.6667 11.8106 16.6667 10C16.6667 8.18947 16.6583 7.96225 16.6264 7.25113C16.5931 6.5414 16.4806 6.05695 16.3167 5.63306C16.1458 5.19458 15.9181 4.82263 15.5472 4.45207C15.1764 4.08124 14.8055 3.85346 14.3667 3.68332C13.9416 3.51845 13.4569 3.40609 12.7472 3.37359C12.0361 3.34123 11.8097 3.33331 9.99855 3.33331H10.0006Z" fill="white"/>
<path fill-rule="evenodd" clip-rule="evenodd" d="M9.40374 4.53615C9.51987 4.53597 9.64479 4.53603 9.7796 4.53609L10.0018 4.53615C11.7818 4.53615 11.9928 4.54254 12.6957 4.57449C13.3457 4.60421 13.6985 4.71282 13.9335 4.80407C14.2446 4.92491 14.4664 5.06935 14.6996 5.30269C14.933 5.53602 15.0774 5.75825 15.1985 6.06936C15.2898 6.30409 15.3985 6.65687 15.4281 7.30687C15.4601 8.00966 15.467 8.22077 15.467 9.99996C15.467 11.7791 15.4601 11.9903 15.4281 12.693C15.3984 13.343 15.2898 13.6958 15.1985 13.9306C15.0777 14.2417 14.933 14.4632 14.6996 14.6964C14.4663 14.9297 14.2448 15.0742 13.9335 15.195C13.6988 15.2867 13.3457 15.395 12.6957 15.4247C11.9929 15.4567 11.7818 15.4636 10.0018 15.4636C8.22165 15.4636 8.01067 15.4567 7.30789 15.4247C6.65788 15.3947 6.3051 15.2861 6.06996 15.1949C5.75884 15.074 5.53662 14.9296 5.30328 14.6963C5.06995 14.4629 4.9255 14.2413 4.80439 13.93C4.71314 13.6953 4.60439 13.3425 4.5748 12.6925C4.54286 11.9897 4.53647 11.7786 4.53647 9.99829C4.53647 8.21799 4.54286 8.00799 4.5748 7.30521C4.60452 6.6552 4.71314 6.30242 4.80439 6.06742C4.92522 5.7563 5.06995 5.53408 5.30328 5.30074C5.53662 5.06741 5.75884 4.92296 6.06996 4.80185C6.30496 4.71018 6.65788 4.60185 7.30789 4.57199C7.92289 4.54421 8.16123 4.53587 9.40374 4.53448V4.53615ZM13.5591 5.64414C13.1175 5.64414 12.7591 6.00206 12.7591 6.44387C12.7591 6.88554 13.1175 7.24388 13.5591 7.24388C14.0008 7.24388 14.3591 6.88554 14.3591 6.44387C14.3591 6.0022 14.0008 5.64386 13.5591 5.64386V5.64414ZM6.57944 10.0011C6.57944 8.11043 8.11229 6.57753 10.0029 6.57745C11.8937 6.57745 13.4262 8.11039 13.4262 10.0011C13.4262 11.8918 11.8938 13.4241 10.0031 13.4241C8.11237 13.4241 6.57944 11.8918 6.57944 10.0011Z" fill="#6B0606"/>
<path d="M10.0009 7.77863C11.2281 7.77863 12.2231 8.7735 12.2231 10.0009C12.2231 11.2281 11.2281 12.2231 10.0009 12.2231C8.77353 12.2231 7.77866 11.2281 7.77866 10.0009C7.77866 8.7735 8.77353 7.77863 10.0009 7.77863Z" fill="#6B0606"/>
</svg>
